# xmcd CD database file
#
# Track frame offsets:
#	150
#	26201
#	36779
#	58004
#	79912
#	93992
#	117086
#	150364
#
# Disc length: 2162 seconds
#
# Revision: 0
# Processed by: cddbd v1.5.1PL2 Copyright (c) Steve Scherf et al.
# Submitted via: CDex 1.51
#
DISCID=5a087008
DTITLE=Various Artist - La Salsa de Lavilliers
DYEAR=2006
DGENRE=Salsa
TTITLE0=Fania All Stars - Soul Makossa
TTITLE1=Joe Bataan - Pa Monte
TTITLE2=Monguito Santamaria - Son Del Monte
TTITLE3=Celia Cruz and Johnny Pacheco - Quimbara (junior cepeda)
TTITLE4=Pete Rodriguez - Soy El Rey
TTITLE5=Ray Barretto - Acid
TTITLE6=Willie Colon and Ruben Blades - Pedro Navaja
TTITLE7=Louie Ramirez - El Titere
EXTD=YEAR: 2006
EXTT0=
EXTT1=
EXTT2=
EXTT3=
EXTT4=
EXTT5=
EXTT6=
EXTT7=
PLAYORDER=
